<svg width="1603" height="258" viewBox="0 0 1603 258" fill="none" xmlns="http://www.w3.org/2000/svg">
<path d="M1138.66 77.8123H1087.05V205.24H1059.72V77.8123H1008.99V52.7476H1138.69L1138.66 77.8123Z" fill="#1890FF"/>
<path d="M1263.7 139.302H1193.3V180.265H1274.2V205.3H1165.97V52.7476H1271.78V77.8123H1193.36V114.177H1263.76L1263.7 139.302Z" fill="#1890FF"/>
<path d="M1431.62 188.462C1429.33 191.133 1426.64 193.443 1423.66 195.314C1419.86 197.734 1415.82 199.748 1411.59 201.325C1406.53 203.265 1401.3 204.763 1395.97 205.803C1389.88 207.002 1383.69 207.586 1377.48 207.546C1365.89 207.703 1354.36 205.862 1343.4 202.106C1333.69 198.777 1324.79 193.476 1317.24 186.539C1309.91 179.599 1304.17 171.162 1300.41 161.805C1296.25 151.284 1294.21 140.052 1294.38 128.746C1294.29 117.924 1296.34 107.191 1300.41 97.1593C1304.18 87.784 1309.92 79.3202 1317.24 72.335C1324.81 65.1791 1333.77 59.6544 1343.58 56.1061C1354.61 52.1011 1366.28 50.1355 1378.02 50.3057C1388.55 50.0745 1399.03 51.5878 1409.06 54.7837C1415.96 57.0256 1422.52 60.1793 1428.58 64.1604V101.968C1426.03 98.4157 1423.13 95.1327 1419.92 92.1704C1416.39 88.9062 1412.51 86.0527 1408.34 83.6652C1403.85 81.1215 1399.08 79.1045 1394.13 77.6545C1388.84 76.1122 1383.35 75.3428 1377.84 75.3704C1370.15 75.2683 1362.51 76.5932 1355.31 79.2774C1348.93 81.6966 1343.13 85.4119 1338.27 90.1869C1333.51 94.9761 1329.86 100.739 1327.56 107.077C1324.99 114.084 1323.73 121.497 1323.82 128.956C1323.77 136.04 1324.92 143.082 1327.23 149.783C1329.37 156.155 1332.87 161.988 1337.49 166.877C1342.12 171.765 1347.75 175.593 1354.01 178.094C1361.37 181.059 1369.24 182.57 1377.18 182.542C1383.41 182.598 1389.62 181.871 1395.67 180.378C1400.99 179 1406.13 176.982 1410.96 174.367C1415.36 172.024 1419.42 169.092 1423.03 165.651C1426.41 162.475 1429.28 158.807 1431.56 154.772L1431.62 188.462Z" fill="#1890FF"/>
<path d="M1575.38 139.302H1491.56V205.42H1464.23V52.7476H1491.56V114.177H1575.38V52.7476H1602.53V205.24H1575.38V139.302Z" fill="#1890FF"/>
<path d="M399.626 114.87C381.74 110.662 366.447 107.056 366.447 94.6437C366.447 77.994 386.988 76.1908 395.825 76.1908C405.603 75.799 415.327 77.8009 424.148 82.0212L448.791 63.9891C432.879 54.3516 414.657 49.161 396.037 48.9623C349.707 48.9623 333.208 73.5161 333.208 96.477C333.208 129.536 362.073 136.478 387.501 142.549C405.387 146.817 420.83 150.513 420.83 163.106C420.83 169.597 416.97 180.447 391.03 180.447C373.321 180.278 356.077 174.778 341.563 164.669L330.222 190.394C343.885 201.003 367.533 207.826 390.758 207.826C429.185 207.826 454.1 189.252 454.1 160.521C454.009 127.643 425.113 120.85 399.626 114.87Z" fill="#1D1D1D"/>
<path d="M594.795 125.864L593.196 125.323L594.674 124.542C600.754 121.377 605.821 116.576 609.298 110.683C612.774 104.791 614.521 98.0452 614.34 91.2125C614.34 66.4183 593.226 51.632 557.966 51.632H484.973V205.146H562.249C600.707 205.146 621.881 190.389 621.881 163.582C622.254 155.181 619.787 146.899 614.877 140.061C609.966 133.223 602.895 128.224 594.795 125.864V125.864ZM518.212 77.0874H553.653C575.973 77.0874 580.799 87.3356 580.799 95.8408C580.799 108.193 571.479 114.594 553.653 114.594H518.212V77.0874ZM518.212 114.594H553.653H518.212ZM559.686 179.45H518.212V140.17H559.686C578.598 140.17 588.189 146.691 588.189 159.825C588.189 172.958 578.869 179.45 559.686 179.45Z" fill="#1D1D1D"/>
<path d="M734.469 77.0847L769.276 51.509H652.818V205.023H769.276V179.447H686.058V140.167H757.061V114.592H686.058V77.0847H734.469Z" fill="#1D1D1D"/>
<path d="M931.608 205.023L897.796 155.134C917.733 146.478 929.255 129.378 929.255 106.447C929.255 72.5765 904.13 51.5089 863.652 51.5089H800.189V205.023H833.368V161.535H863.531H866.336L895.865 205.083L931.608 205.023ZM833.368 77.0845H862.837C884.132 77.0845 895.865 87.5432 895.865 106.537C895.865 125.531 884.132 135.99 862.837 135.99H833.368V77.0845Z" fill="#1D1D1D"/>
<path d="M256.043 128.271C256.053 120.611 255.366 112.966 253.992 105.43L226.423 125.656C226.423 126.528 226.423 127.399 226.423 128.271C226.451 150.216 219.101 171.538 205.547 188.835C191.992 206.133 173.015 218.409 151.641 223.705C130.267 229.001 107.729 227.012 87.6223 218.056C67.5154 209.1 50.9982 193.692 40.7057 174.29C30.4132 154.889 26.9386 132.612 30.836 111.013C34.7335 89.414 45.7785 69.738 62.209 55.1238C78.6395 40.5097 99.5088 31.7994 121.488 30.3825C143.466 28.9656 165.288 34.9237 183.472 47.3064L208.356 29.0339C185.763 10.875 157.647 0.907939 128.62 0.768332C99.5939 0.628726 71.382 10.3249 48.6148 28.2656C25.8475 46.2062 9.87742 71.3255 3.32548 99.501C-3.22646 127.676 0.0289734 157.234 12.5575 183.323C25.0861 209.413 46.1434 230.483 72.2737 243.077C98.404 255.671 128.055 259.04 156.36 252.632C184.665 246.224 209.944 230.418 228.046 207.81C246.148 185.201 255.999 157.133 255.983 128.211L256.043 128.271Z" fill="#1D1D1D"/>
<path d="M229.327 50.2827C235.421 58.1111 240.574 66.6243 244.68 75.648L128.041 161.301L79.2979 130.856V94.2211L128.041 124.665L229.327 50.2827Z" fill="#1D1D1D"/>
</svg>
