<?xml version="1.0" encoding="UTF-8"?>
<svg id="Layer_2" xmlns="http://www.w3.org/2000/svg" viewBox="0 0 136.18 42.74">
  <g id="Layer_1-2" data-name="Layer_1">
    <path d="M36.89,36.93h-14.23l5.54,5.54h14.27s0-14.25,0-14.25l-5.58-5.58v14.29ZM92.15,32.73c1.12,0,2.01.46,2.59,1.32l2.11-1.98c-.81-1.12-2.34-2.21-4.85-2.21-3.78,0-6.5,2.66-6.5,6.42s2.72,6.45,6.5,6.45c2.51,0,4.04-1.09,4.85-2.23l-2.11-1.95c-.58.81-1.47,1.32-2.59,1.32-1.95,0-3.33-1.45-3.33-3.58s1.37-3.55,3.33-3.55M98.8,32.99h3.43v9.45h3.25v-9.45h3.43v-2.82h-10.1v2.82ZM113.48,35.14c.15-1.22,1.01-2.72,3.02-2.72,2.13,0,2.95,1.55,3.02,2.72h-6.04ZM116.5,29.86c-3.73,0-6.35,2.87-6.35,6.42,0,3.94,2.82,6.45,6.55,6.45,1.91,0,3.84-.58,5.05-1.7l-1.42-2.08c-.79.76-2.23,1.22-3.27,1.22-2.08,0-3.33-1.29-3.53-2.84h9.12v-.71c0-4.01-2.49-6.75-6.14-6.75M76.89,39.87c-2,0-3.12-1.65-3.12-3.58s1.12-3.55,3.12-3.55,3.15,1.65,3.15,3.55-1.14,3.58-3.15,3.58M76.89,29.86c-4.04,0-6.47,2.94-6.47,6.42s2.44,6.45,6.47,6.45,6.5-2.95,6.5-6.45-2.44-6.42-6.5-6.42M131.78,36.13l4.11-5.97h-3.61l-2.51,3.78-2.54-3.78h-3.61l4.09,5.97-4.34,6.3h3.58l2.82-4.14,2.79,4.14h3.61l-4.39-6.3ZM5.58,22.64L0,28.22v14.25h14.27l5.54-5.54H5.58v-14.29ZM22.67,5.54h14.23v14.31l5.58-5.58V0h-14.27l-5.54,5.54ZM0,0v14.27l5.58,5.58V5.54h14.23L14.27,0H0ZM62.87,33.24h-3.83v-4.57h3.83c1.42,0,2.49.86,2.49,2.29s-1.07,2.28-2.49,2.28M63.35,25.49h-7.92v16.94h3.61v-6.02h4.32c3.66,0,5.69-2.51,5.69-5.46s-2.01-5.46-5.69-5.46"/>
  </g>
</svg>